<svg width="55" height="55" viewBox="0 0 55 55" fill="none" xmlns="http://www.w3.org/2000/svg">
<path d="M44.2969 0C49.8197 0 54.2969 4.47715 54.2969 10V28.0518C54.2969 32.03 52.7163 35.8452 49.9033 38.6582L38.3945 50.167C35.5815 52.9799 31.7663 54.5605 27.7881 54.5605H10C4.47722 54.5605 0.00011339 50.0833 0 44.5605V10C3.60795e-06 4.47716 4.47715 0 10 0H44.2969ZM18.2344 13.707C16.0252 13.707 14.2344 15.4979 14.2344 17.707V38.1729C14.2344 40.382 16.0252 42.1729 18.2344 42.1729H23.4131C25.6222 42.1729 27.4131 40.382 27.4131 38.1729V31.4131C27.4131 29.2041 29.2041 27.4133 31.4131 27.4131H35.5381C37.7471 27.4131 39.5379 25.6221 39.5381 23.4131V17.707C39.5381 15.4979 37.7472 13.707 35.5381 13.707H18.2344Z" fill="white"/>
</svg>
